<?xml version="1.0" standalone="no"?>
<!DOCTYPE svg PUBLIC "-//W3C//DTD SVG 20010904//EN"
 "http://www.w3.org/TR/2001/REC-SVG-20010904/DTD/svg10.dtd">
<svg version="1.0" xmlns="http://www.w3.org/2000/svg"
 width="309.000000pt" height="309.000000pt" viewBox="0 0 309.000000 309.000000"
 preserveAspectRatio="xMidYMid meet">
<metadata>
Created by potrace 1.11, written by Peter Selinger 2001-2013
</metadata>
<g transform="translate(0.000000,309.000000) scale(0.100000,-0.100000)"
fill="#000000" stroke="none">
<path d="M857 2884 c-18 -18 0 -56 94 -192 56 -81 103 -151 105 -157 2 -5 -22
-27 -54 -48 -65 -42 -116 -86 -110 -93 3 -2 292 -3 644 -2 l639 3 -85 64 c-47
35 -85 69 -84 75 1 6 47 77 103 159 108 155 121 192 71 192 -20 0 -39 -21
-107 -120 -46 -66 -96 -139 -112 -161 l-29 -42 -100 34 c-196 68 -413 69 -601
4 -47 -16 -90 -31 -95 -32 -5 -2 -59 69 -120 157 -105 151 -136 182 -159 159z"/>
<path d="M818 2303 c-2 -5 -2 -68 0 -140 l4 -133 304 0 304 0 0 140 0 140
-304 0 c-168 0 -306 -3 -308 -7z"/>
<path d="M1610 2170 l0 -140 310 0 310 0 0 140 0 140 -310 0 -310 0 0 -140z"/>
<path d="M679 2120 c-26 -52 -54 -118 -63 -145 -16 -50 -46 -194 -46 -221 0
-12 139 -14 956 -14 l957 0 -6 53 c-12 99 -47 212 -100 317 l-52 105 -5 -118
c-5 -110 -7 -120 -29 -138 -22 -18 -50 -19 -766 -19 -716 0 -744 1 -766 19
-22 18 -24 28 -29 138 l-5 118 -46 -95z"/>
<path d="M160 879 c0 -636 0 -639 20 -639 54 0 128 56 149 113 7 19 11 199 11
530 0 501 0 502 -23 541 -28 50 -64 76 -116 86 l-41 7 0 -638z"/>
<path d="M2857 1510 c-49 -9 -86 -37 -114 -86 -23 -39 -23 -40 -23 -541 0
-331 4 -511 11 -530 23 -62 95 -113 159 -113 l30 0 0 634 c0 498 -3 635 -12
638 -7 2 -30 1 -51 -2z"/>
<path d="M733 1503 l-193 -3 0 -750 0 -750 985 0 985 0 0 750 0 750 -123 0
c-68 0 -206 3 -305 7 -167 6 -182 5 -182 -11 0 -32 -48 -112 -92 -151 -40 -37
-66 -51 -185 -100 -43 -18 -73 -51 -73 -80 0 -8 -9 -15 -20 -15 -11 0 -20 7
-20 15 0 29 -30 62 -73 80 -119 49 -145 63 -185 100 -43 38 -92 119 -92 150 0
13 -18 15 -117 13 -65 -2 -205 -4 -310 -5z m1345 -173 c2 -35 0 -61 -4 -58 -3
4 -6 32 -5 63 l0 57 -29 -4 c-16 -2 -27 0 -24 4 3 5 18 8 32 6 26 -3 27 -6 30
-68z m-31 3 l1 -38 -13 30 c-13 29 -11 45 4 45 4 0 8 -17 8 -37z m-322 -420
c85 -45 134 -128 135 -226 0 -98 -45 -175 -132 -223 -48 -26 -64 -29 -164 -32
l-111 -4 -18 -79 -18 -79 -139 0 -138 0 5 23 c3 12 34 157 70 322 36 165 68
306 70 313 4 11 45 13 202 10 180 -3 202 -5 238 -25z"/>
<path d="M1296 903 c-3 -10 -32 -144 -66 -298 -33 -154 -63 -288 -66 -298 -5
-16 3 -17 117 -15 l123 3 19 78 19 77 100 0 c121 0 165 12 219 59 53 45 78
100 79 172 0 103 -39 172 -123 214 -49 24 -58 25 -233 25 -165 0 -183 -2 -188
-17z"/>
<path d="M1180 1495 c0 -3 9 -22 19 -43 40 -76 109 -132 207 -167 43 -15 79
-36 97 -55 l28 -31 24 29 c14 16 37 34 52 40 16 6 50 18 77 28 57 21 149 101
177 155 10 21 19 41 19 44 0 3 -157 5 -350 5 -192 0 -350 -2 -350 -5z"/>
</g>
</svg>
